<svg width="24" height="24" viewBox="0 0 24 24" fill="none" xmlns="http://www.w3.org/2000/svg">
<path fill-rule="evenodd" clip-rule="evenodd" d="M3.59998 6C3.59998 5.68174 3.7264 5.37651 3.95145 5.15147C4.17649 4.92643 4.48172 4.8 4.79998 4.8H19.2C19.5182 4.8 19.8235 4.92643 20.0485 5.15147C20.2735 5.37651 20.4 5.68174 20.4 6C20.4 6.31826 20.2735 6.62348 20.0485 6.84853C19.8235 7.07357 19.5182 7.2 19.2 7.2H4.79998C4.48172 7.2 4.17649 7.07357 3.95145 6.84853C3.7264 6.62348 3.59998 6.31826 3.59998 6ZM3.59998 12C3.59998 11.6817 3.7264 11.3765 3.95145 11.1515C4.17649 10.9264 4.48172 10.8 4.79998 10.8H19.2C19.5182 10.8 19.8235 10.9264 20.0485 11.1515C20.2735 11.3765 20.4 11.6817 20.4 12C20.4 12.3183 20.2735 12.6235 20.0485 12.8485C19.8235 13.0736 19.5182 13.2 19.2 13.2H4.79998C4.48172 13.2 4.17649 13.0736 3.95145 12.8485C3.7264 12.6235 3.59998 12.3183 3.59998 12ZM3.59998 18C3.59998 17.6817 3.7264 17.3765 3.95145 17.1515C4.17649 16.9264 4.48172 16.8 4.79998 16.8H19.2C19.5182 16.8 19.8235 16.9264 20.0485 17.1515C20.2735 17.3765 20.4 17.6817 20.4 18C20.4 18.3183 20.2735 18.6235 20.0485 18.8485C19.8235 19.0736 19.5182 19.2 19.2 19.2H4.79998C4.48172 19.2 4.17649 19.0736 3.95145 18.8485C3.7264 18.6235 3.59998 18.3183 3.59998 18Z" fill="#5CE1E6"/>
</svg>
